<?xml version="1.0" encoding="UTF-8"?>
<!DOCTYPE svg PUBLIC "-//W3C//DTD SVG 1.1//EN" "http://www.w3.org/Graphics/SVG/1.1/DTD/svg11.dtd">
<!-- Creator: CorelDRAW X8 -->
<svg xmlns="http://www.w3.org/2000/svg" xml:space="preserve" width="549px" height="155px" version="1.1" style="shape-rendering:geometricPrecision; text-rendering:geometricPrecision; image-rendering:optimizeQuality; fill-rule:evenodd; clip-rule:evenodd"
viewBox="0 0 549 155"
 xmlns:xlink="http://www.w3.org/1999/xlink">
 <defs>
  <style type="text/css">
   <![CDATA[
    .str0 {stroke:#FEFEFE;stroke-width:0.268981}
    .fil0 {fill:#FEFEFE}
   ]]>
  </style>
 </defs>
 <g id="Capa_x0020_1">
  <metadata id="CorelCorpID_0Corel-Layer"/>
  <g id="_718043632">
   <g>
    <path class="fil0" d="M441 50c0,13 0,17 5,29 3,5 7,10 11,14 4,4 10,8 15,10 14,7 32,7 46,0 3,-1 5,-2 8,-5 2,-1 2,-1 4,-2 1,-2 2,-2 3,-4 4,-4 9,-10 11,-15 20,-45 -26,-91 -70,-72 -9,3 -17,10 -22,17 -6,8 -11,18 -11,28zm15 4c0,7 1,12 3,17 2,5 5,9 9,13 0,0 0,1 0,1 1,0 1,0 1,0 1,1 1,2 2,2 11,10 28,11 41,5 4,-3 8,-6 11,-9 3,-4 5,-7 8,-12 4,-10 4,-21 0,-32 -4,-13 -19,-25 -33,-25 -10,0 -19,1 -26,8 -2,1 -4,2 -6,4 -6,9 -10,15 -10,28z"/>
    <path class="fil0" d="M91 52c0,18 7,32 21,42 7,4 13,7 21,10 8,2 30,5 39,3l1 -107c-22,0 -43,1 -60,13 -7,5 -7,5 -12,11 -5,8 -10,17 -10,28zm20 0c0,14 4,22 14,31 7,6 18,12 28,12l0 -81c-14,-1 -25,6 -34,17 -4,5 -8,14 -8,21z"/>
    <path class="fil0" d="M0 105c0,3 -3,2 15,2 16,0 31,-4 44,-13 2,-1 3,-1 4,-3 2,-1 3,-2 4,-3 2,-2 2,-2 3,-4 6,-6 11,-17 11,-26 0,-11 0,-20 -7,-30 -5,-7 -11,-13 -18,-18 -6,-3 -9,-4 -16,-6 -15,-5 -24,-4 -40,-4l0 105zm19 -12c0,3 4,2 8,1 16,-4 35,-19 35,-38 0,-10 -2,-18 -8,-26 -4,-5 -11,-10 -17,-13 -6,-3 -10,-4 -18,-4l0 80z"/>
    <path class="fil0" d="M330 52c0,11 0,16 5,26 3,6 6,9 10,15 3,3 10,8 15,10 26,13 61,1 72,-31 2,-4 5,-11 0,-11l-40 0c-4,0 -3,6 -3,12 0,2 1,2 1,3l21 0c-1,5 -15,17 -27,17 -13,0 -18,-4 -26,-12 -13,-12 -14,-33 -5,-48 3,-5 9,-11 14,-13 12,-6 22,-5 34,1l10 -11c-1,-2 1,1 0,-1 -1,-1 -3,-2 -5,-3 -2,-1 -4,-2 -7,-3 -36,-12 -69,17 -69,49z"/>
    <path class="fil0" d="M243 108l79 0 0 -13 -58 0c-1,0 -2,0 -2,-2l0 -18 18 0c2,0 1,-4 1,-11 0,-2 0,-2 -1,-2l-17 0 0 -47c0,-1 -1,-2 2,-2l57 0 0 -12 -79 0 0 107z"/>
    <polygon class="fil0" points="196,108 216,108 216,0 197,0 "/>
   </g>
  </g>
 </g>
</svg>
